<?xml version="1.0" encoding="UTF-8"?>
<svg width="685px" height="430px" viewBox="0 0 685 430" version="1.1" xmlns="http://www.w3.org/2000/svg" xmlns:xlink="http://www.w3.org/1999/xlink">
    <!-- Generator: Sketch 48.2 (47327) - http://www.bohemiancoding.com/sketch -->
    <title>run_queue</title>
    <desc>Created with Sketch.</desc>
    <defs>
        <rect id="path-1" x="0" y="0" width="164" height="155" rx="11"></rect>
        <rect id="path-2" x="0" y="0" width="127.631799" height="44.6385965"></rect>
        <rect id="path-3" x="0" y="0" width="14.4100418" height="14.8070175"></rect>
        <rect id="path-4" x="0" y="0.633439201" width="164" height="175.366561" rx="11"></rect>
        <rect id="path-5" x="1" y="0" width="127.631799" height="44.6385965"></rect>
        <rect id="path-6" x="0.841004184" y="0.361403509" width="14.4100418" height="14.8070175"></rect>
        <rect id="path-7" x="0" y="0" width="127.631799" height="44.6385965"></rect>
        <rect id="path-8" x="0" y="0" width="14.4100418" height="14.8070175"></rect>
        <rect id="path-9" x="0" y="0.633439201" width="164" height="175.366561" rx="11"></rect>
        <rect id="path-10" x="1" y="0" width="127.631799" height="44.6385965"></rect>
        <rect id="path-11" x="0.841004184" y="0.361403509" width="14.4100418" height="14.8070175"></rect>
        <rect id="path-12" x="0" y="0" width="127.631799" height="44.6385965"></rect>
        <rect id="path-13" x="0" y="0" width="14.4100418" height="14.8070175"></rect>
        <rect id="path-14" x="0" y="0.633439201" width="164" height="175.366561" rx="11"></rect>
        <rect id="path-15" x="1" y="0" width="127.631799" height="44.6385965"></rect>
        <rect id="path-16" x="0.841004184" y="0.361403509" width="14.4100418" height="14.8070175"></rect>
        <rect id="path-17" x="0" y="0" width="127.631799" height="44.6385965"></rect>
        <rect id="path-18" x="0" y="0" width="14.4100418" height="14.8070175"></rect>
    </defs>
    <g id="Page-1" stroke="none" stroke-width="1" fill="none" fill-rule="evenodd">
        <g id="run_queue">
            <g id="run-queue" transform="translate(130.000000, 275.000000)">
                <g id="Rectangle-5">
                    <use fill="#FAE4DE" fill-rule="evenodd" xlink:href="#path-1"></use>
                    <rect stroke="#979797" stroke-width="1" x="0.5" y="0.5" width="163" height="154" rx="11"></rect>
                </g>
                <text font-family="Avenir-Heavy, Avenir" font-size="24" font-weight="600" fill="#32323B">
                    <tspan x="23.3305439" y="38.8690476">run queue</tspan>
                </text>
                <g id="Group-26" transform="translate(19.000000, 70.000000)">
                    <g id="Rectangle-6">
                        <use fill="#EDC8C8" fill-rule="evenodd" xlink:href="#path-2"></use>
                        <rect stroke="#979797" stroke-width="1" x="0.5" y="0.5" width="126.631799" height="43.6385965"></rect>
                    </g>
                    <g id="Rectangle-7">
                        <use fill="#7E7A7A" fill-rule="evenodd" xlink:href="#path-3"></use>
                        <rect stroke="#979797" stroke-width="1" x="0.5" y="0.5" width="13.4100418" height="13.8070175"></rect>
                    </g>
                </g>
            </g>
            <text id="list_head" font-family="Avenir-Light, Avenir" font-size="18" font-weight="300" fill="#32323B">
                <tspan x="176" y="373">list_head</tspan>
            </text>
            <g id="Group-28" transform="translate(91.000000, 182.000000)" stroke="#EE9999" stroke-linecap="square" stroke-width="2">
                <polyline id="Line-22" points="49 173 0 173 0 0"></polyline>
                <path id="Line-22-decoration-1" d="M0,0 L-3,10.8 L3,10.8 L0,0 Z"></path>
                <path d="M0,173.5 L50,173.5" id="Line-22"></path>
                <path id="Line-22-decoration-1" d="M50,173.5 L39.2,170.5 L39.2,176.5 L50,173.5 Z"></path>
            </g>
            <g id="Group-28" transform="translate(314.000000, 267.500000) scale(-1, 1) translate(-314.000000, -267.500000) translate(289.000000, 180.000000)" stroke="#EE9999" stroke-linecap="square" stroke-width="2">
                <polyline id="Line-22" points="49 173 0 173 0 0"></polyline>
                <path id="Line-22-decoration-1" d="M0,0 L-3,10.8 L3,10.8 L0,0 Z"></path>
                <path d="M0,173.5 L50,173.5" id="Line-22"></path>
                <path id="Line-22-decoration-1" d="M50,173.5 L39.2,170.5 L39.2,176.5 L50,173.5 Z"></path>
            </g>
            <g id="Group-12" transform="translate(40.000000, 0.000000)">
                <g id="task-struct3" transform="translate(0.000000, 1.000000)">
                    <g id="Rectangle-5">
                        <use fill="#FAE7C8" fill-rule="evenodd" xlink:href="#path-4"></use>
                        <rect stroke="#979797" stroke-width="1" x="0.5" y="1.1334392" width="163" height="174.366561" rx="11"></rect>
                    </g>
                    <g id="Group-25" transform="translate(17.000000, 54.000000)">
                        <g id="Rectangle-6">
                            <use fill="#D8D8D8" fill-rule="evenodd" xlink:href="#path-5"></use>
                            <rect stroke="#979797" stroke-width="1" x="1.5" y="0.5" width="126.631799" height="43.6385965"></rect>
                        </g>
                        <g id="Rectangle-7">
                            <use fill="#7E7A7A" fill-rule="evenodd" xlink:href="#path-6"></use>
                            <rect stroke="#979797" stroke-width="1" x="1.34100418" y="0.861403509" width="13.4100418" height="13.8070175"></rect>
                        </g>
                        <text id="list_head" font-family="Avenir-Book, Avenir" font-size="18" font-weight="normal" fill="#32323B">
                            <tspan x="21" y="28">list_head</tspan>
                        </text>
                    </g>
                    <text id="task-struct" font-family="Avenir-Heavy, Avenir" font-size="24" font-weight="600" fill="#32323B">
                        <tspan x="22.5857741" y="34.6334392">task struct</tspan>
                    </text>
                    <g id="Group-26" transform="translate(18.000000, 105.000000)">
                        <g id="Rectangle-6">
                            <use fill="#EDC8C8" fill-rule="evenodd" xlink:href="#path-7"></use>
                            <rect stroke="#979797" stroke-width="1" x="0.5" y="0.5" width="126.631799" height="43.6385965"></rect>
                        </g>
                        <g id="Rectangle-7">
                            <use fill="#7E7A7A" fill-rule="evenodd" xlink:href="#path-8"></use>
                            <rect stroke="#979797" stroke-width="1" x="0.5" y="0.5" width="13.4100418" height="13.8070175"></rect>
                        </g>
                    </g>
                    <text id="list_head" font-family="Avenir-Light, Avenir" font-size="18" font-weight="300" fill="#32323B">
                        <tspan x="40" y="134">list_head</tspan>
                    </text>
                </g>
                <g id="task-struct3" transform="translate(217.000000, 0.000000)">
                    <g id="Rectangle-5">
                        <use fill="#FAE7C8" fill-rule="evenodd" xlink:href="#path-9"></use>
                        <rect stroke="#979797" stroke-width="1" x="0.5" y="1.1334392" width="163" height="174.366561" rx="11"></rect>
                    </g>
                    <g id="Group-25" transform="translate(17.000000, 54.000000)">
                        <g id="Rectangle-6">
                            <use fill="#D8D8D8" fill-rule="evenodd" xlink:href="#path-10"></use>
                            <rect stroke="#979797" stroke-width="1" x="1.5" y="0.5" width="126.631799" height="43.6385965"></rect>
                        </g>
                        <g id="Rectangle-7">
                            <use fill="#7E7A7A" fill-rule="evenodd" xlink:href="#path-11"></use>
                            <rect stroke="#979797" stroke-width="1" x="1.34100418" y="0.861403509" width="13.4100418" height="13.8070175"></rect>
                        </g>
                        <text id="list_head" font-family="Avenir-Book, Avenir" font-size="18" font-weight="normal" fill="#32323B">
                            <tspan x="21" y="28">list_head</tspan>
                        </text>
                    </g>
                    <text id="task-struct" font-family="Avenir-Heavy, Avenir" font-size="24" font-weight="600" fill="#32323B">
                        <tspan x="22.5857741" y="34.6334392">task struct</tspan>
                    </text>
                    <g id="Group-26" transform="translate(18.000000, 105.000000)">
                        <g id="Rectangle-6">
                            <use fill="#EDC8C8" fill-rule="evenodd" xlink:href="#path-12"></use>
                            <rect stroke="#979797" stroke-width="1" x="0.5" y="0.5" width="126.631799" height="43.6385965"></rect>
                        </g>
                        <g id="Rectangle-7">
                            <use fill="#7E7A7A" fill-rule="evenodd" xlink:href="#path-13"></use>
                            <rect stroke="#979797" stroke-width="1" x="0.5" y="0.5" width="13.4100418" height="13.8070175"></rect>
                        </g>
                    </g>
                    <text id="list_head" font-family="Avenir-Light, Avenir" font-size="18" font-weight="300" fill="#32323B">
                        <tspan x="40" y="134">list_head</tspan>
                    </text>
                </g>
                <g id="task-struct3" transform="translate(432.000000, 0.000000)">
                    <g id="Rectangle-5">
                        <use fill="#FAE7C8" fill-rule="evenodd" xlink:href="#path-14"></use>
                        <rect stroke="#979797" stroke-width="1" x="0.5" y="1.1334392" width="163" height="174.366561" rx="11"></rect>
                    </g>
                    <g id="Group-25" transform="translate(17.000000, 54.000000)">
                        <g id="Rectangle-6">
                            <use fill="#D8D8D8" fill-rule="evenodd" xlink:href="#path-15"></use>
                            <rect stroke="#979797" stroke-width="1" x="1.5" y="0.5" width="126.631799" height="43.6385965"></rect>
                        </g>
                        <g id="Rectangle-7">
                            <use fill="#7E7A7A" fill-rule="evenodd" xlink:href="#path-16"></use>
                            <rect stroke="#979797" stroke-width="1" x="1.34100418" y="0.861403509" width="13.4100418" height="13.8070175"></rect>
                        </g>
                        <text id="list_head" font-family="Avenir-Book, Avenir" font-size="18" font-weight="normal" fill="#32323B">
                            <tspan x="21" y="28">list_head</tspan>
                        </text>
                    </g>
                    <text id="task-struct" font-family="Avenir-Heavy, Avenir" font-size="24" font-weight="600" fill="#32323B">
                        <tspan x="22.5857741" y="34.6334392">task struct</tspan>
                    </text>
                    <g id="Group-26" transform="translate(18.000000, 105.000000)">
                        <g id="Rectangle-6">
                            <use fill="#EDC8C8" fill-rule="evenodd" xlink:href="#path-17"></use>
                            <rect stroke="#979797" stroke-width="1" x="0.5" y="0.5" width="126.631799" height="43.6385965"></rect>
                        </g>
                        <g id="Rectangle-7">
                            <use fill="#7E7A7A" fill-rule="evenodd" xlink:href="#path-18"></use>
                            <rect stroke="#979797" stroke-width="1" x="0.5" y="0.5" width="13.4100418" height="13.8070175"></rect>
                        </g>
                    </g>
                    <text id="list_head" font-family="Avenir-Light, Avenir" font-size="18" font-weight="300" fill="#32323B">
                        <tspan x="40" y="134">list_head</tspan>
                    </text>
                </g>
            </g>
            <g id="arrows-task-struct" transform="translate(0.000000, 77.000000)" stroke="#979797" stroke-linecap="square">
                <g id="Group-27" transform="translate(209.000000, 0.000000)">
                    <path d="M15.3431864,0.73964497 L38.5,0.73964497" id="Line-14"></path>
                    <path id="Line-14-decoration-1" d="M38.5,0.73964497 L27.7,-2.26035503 L27.7,3.73964497 L38.5,0.73964497 Z"></path>
                    <path d="M37.0646293,0.518737673 L0.628643421,0.518737673" id="Line-14"></path>
                    <path id="Line-14-decoration-1" d="M0.628643421,0.518737673 L11.4286434,3.51873767 L11.4286434,-2.48126233 L0.628643421,0.518737673 Z"></path>
                </g>
                <g id="Group-27" transform="translate(427.000000, 0.000000)">
                    <path d="M15.3431864,0.73964497 L38.5,0.73964497" id="Line-14"></path>
                    <path id="Line-14-decoration-1" d="M38.5,0.73964497 L27.7,-2.26035503 L27.7,3.73964497 L38.5,0.73964497 Z"></path>
                    <path d="M37.0646293,0.518737673 L0.628643421,0.518737673" id="Line-14"></path>
                    <path id="Line-14-decoration-1" d="M0.628643421,0.518737673 L11.4286434,3.51873767 L11.4286434,-2.48126233 L0.628643421,0.518737673 Z"></path>
                </g>
                <g id="Group-13">
                    <path d="M684,2.48106061 L684,128.518939" id="Line-15"></path>
                    <path d="M683.656784,128.5 L1.34287079,128.5" id="Line-16"></path>
                    <path d="M1,128.518797 L1,1.48120301" id="Line-17"></path>
                    <path d="M1.34883721,1.5 L30.6511628,1.5" id="Line-18"></path>
                    <path id="Line-18-decoration-1" d="M30.6511628,1.5 L19.8511628,-1.5 L19.8511628,4.5 L30.6511628,1.5 Z"></path>
                    <path d="M683.657407,2.5 L647.342593,2.5" id="Line-13"></path>
                    <path id="Line-13-decoration-1" d="M647.342593,2.5 L658.142593,5.5 L658.142593,-0.5 L647.342593,2.5 Z"></path>
                </g>
            </g>
            <g id="Group-11" transform="translate(211.000000, 131.000000)" stroke="#EE9999" stroke-linecap="square" stroke-width="2">
                <path d="M0,0.5 L37.7247159,0.5" id="Line-22"></path>
                <path id="Line-22-decoration-1" d="M37.7247159,0.5 L26.9247159,-2.5 L26.9247159,3.5 L37.7247159,0.5 Z"></path>
                <path d="M36.3428977,0.5 L0,0.5" id="Line-22"></path>
                <path id="Line-22-decoration-1" d="M0,0.5 L10.8,3.5 L10.8,-2.5 L0,0.5 Z"></path>
            </g>
            <g id="Group-11" transform="translate(428.000000, 131.000000)" stroke="#EE9999" stroke-linecap="square" stroke-width="2">
                <path d="M0,0.5 L37.7247159,0.5" id="Line-22"></path>
                <path id="Line-22-decoration-1" d="M37.7247159,0.5 L26.9247159,-2.5 L26.9247159,3.5 L37.7247159,0.5 Z"></path>
                <path d="M36.3428977,0.5 L0,0.5" id="Line-22"></path>
                <path id="Line-22-decoration-1" d="M0,0.5 L10.8,3.5 L10.8,-2.5 L0,0.5 Z"></path>
            </g>
        </g>
    </g>
</svg>