<?xml version="1.0" encoding="UTF-8"?>
<svg width="724px" height="714px" viewBox="0 0 724 714" version="1.1" xmlns="http://www.w3.org/2000/svg" xmlns:xlink="http://www.w3.org/1999/xlink">
    <!-- Generator: Sketch 48.2 (47327) - http://www.bohemiancoding.com/sketch -->
    <title>2level</title>
    <desc>Created with Sketch.</desc>
    <defs>
        <rect id="path-1" x="0" y="54" width="333" height="40"></rect>
        <rect id="path-2" x="128" y="54" width="125" height="40"></rect>
        <rect id="path-3" x="252" y="54" width="81" height="40"></rect>
        <rect id="path-4" x="0" y="57" width="333" height="40"></rect>
        <rect id="path-5" x="252" y="57" width="81" height="40"></rect>
        <rect id="path-6" x="0" y="0" width="98" height="45"></rect>
        <rect id="path-7" x="97" y="0" width="50" height="45"></rect>
    </defs>
    <g id="Page-2" stroke="none" stroke-width="1" fill="none" fill-rule="evenodd">
        <g id="2level" transform="translate(0.000000, -4.000000)">
            <g id="32bit-page" transform="translate(0.000000, 78.000000)">
                <g id="Rectangle-12">
                    <use fill="#F4E4E5" fill-rule="evenodd" xlink:href="#path-1"></use>
                    <rect stroke="#979797" stroke-width="1" x="0.5" y="54.5" width="332" height="39"></rect>
                </g>
                <g id="Rectangle-14">
                    <use fill="#F8E5F0" fill-rule="evenodd" xlink:href="#path-2"></use>
                    <rect stroke="#979797" stroke-width="1" x="128.5" y="54.5" width="124" height="39"></rect>
                </g>
                <g id="Rectangle-13">
                    <use fill="#D8D8D8" fill-rule="evenodd" xlink:href="#path-3"></use>
                    <rect stroke="#979797" stroke-width="1" x="252.5" y="54.5" width="80" height="39"></rect>
                </g>
                <text id="10-bit" font-family="Avenir-Book, Avenir" font-size="18" font-weight="normal" fill="#32323B">
                    <tspan x="44" y="20">10 bit</tspan>
                </text>
                <text id="10-bit" font-family="Avenir-Book, Avenir" font-size="18" font-weight="normal" fill="#32323B">
                    <tspan x="167" y="21">10 bit</tspan>
                </text>
                <text id="12-bit" font-family="Avenir-Book, Avenir" font-size="18" font-weight="normal" fill="#32323B">
                    <tspan x="271" y="18">12 bit</tspan>
                </text>
                <text id="offset" font-family="Avenir-Book, Avenir" font-size="18" font-weight="normal" fill="#32323B">
                    <tspan x="271" y="79">offset</tspan>
                </text>
                <text id="Directory" font-family="Avenir-Book, Avenir" font-size="18" font-weight="normal" fill="#32323B">
                    <tspan x="30" y="79">Directory</tspan>
                </text>
                <text id="where-in-PTE" font-family="Avenir-Book, Avenir" font-size="18" font-weight="normal" fill="#32323B">
                    <tspan x="141" y="80">where in PTE</tspan>
                </text>
                <g id="arrow" transform="translate(64.500000, 41.000000) rotate(-180.000000) translate(-64.500000, -41.000000) translate(2.000000, 25.000000)" stroke="#979797">
                    <path d="M0,0 C6.30959505,11.0026712 12.9797766,16.4098535 21.8611028,16.6777819 C47.4669434,17.4502488 56.2625242,-1.5290728 64,32" id="Path-2"></path>
                    <path d="M125,0 C118.986167,11.0026712 112.62865,16.4098535 104.163636,16.6777819 C79.7580696,17.4502488 71.3747816,-1.5290728 64,32" id="Path-2"></path>
                </g>
                <g id="arrow" transform="translate(190.500000, 41.000000) rotate(-180.000000) translate(-190.500000, -41.000000) translate(128.000000, 25.000000)" stroke="#979797">
                    <path d="M0,0 C6.30959505,11.0026712 12.9797766,16.4098535 21.8611028,16.6777819 C47.4669434,17.4502488 56.2625242,-1.5290728 64,32" id="Path-2"></path>
                    <path d="M125,0 C118.986167,11.0026712 112.62865,16.4098535 104.163636,16.6777819 C79.7580696,17.4502488 71.3747816,-1.5290728 64,32" id="Path-2"></path>
                </g>
                <g id="arrow" transform="translate(292.500000, 40.000000) rotate(-180.000000) translate(-292.500000, -40.000000) translate(252.000000, 24.000000)" stroke="#979797">
                    <path d="M0,0 C4.04208433,11.0026712 8.31516938,16.4098535 14.004769,16.6777819 C30.4085106,17.4502488 36.0431796,-1.5290728 41,32" id="Path-2"></path>
                    <path d="M81,0 C77.0565031,11.0026712 72.8876396,16.4098535 67.3368107,16.6777819 C51.3331604,17.4502488 45.8359224,-1.5290728 41,32" id="Path-2"></path>
                </g>
            </g>
            <g id="32bit-frame" transform="translate(390.000000, 75.000000)">
                <g id="Rectangle-12">
                    <use fill="#E3F2F7" fill-rule="evenodd" xlink:href="#path-4"></use>
                    <rect stroke="#979797" stroke-width="1" x="0.5" y="57.5" width="332" height="39"></rect>
                </g>
                <text id="Frame-Number" font-family="Avenir-Book, Avenir" font-size="18" font-weight="normal" fill="#32323B">
                    <tspan x="73" y="81">Frame Number</tspan>
                </text>
                <g id="Rectangle-13">
                    <use fill="#D8D8D8" fill-rule="evenodd" xlink:href="#path-5"></use>
                    <rect stroke="#979797" stroke-width="1" x="252.5" y="57.5" width="80" height="39"></rect>
                </g>
                <text id="offset" font-family="Avenir-Book, Avenir" font-size="18" font-weight="normal" fill="#32323B">
                    <tspan x="271" y="82">offset</tspan>
                </text>
                <g id="arrow" transform="translate(128.500000, 41.000000) rotate(-180.000000) translate(-128.500000, -41.000000) translate(3.000000, 25.000000)" stroke="#979797">
                    <path d="M0,0 C12.7177775,11.0026712 26.1623622,16.4098535 44.0637854,16.6777819 C95.6755577,17.4502488 113.40415,-1.5290728 129,32" id="Path-2"></path>
                    <path d="M251,0 C238.972334,11.0026712 226.257301,16.4098535 209.327273,16.6777819 C160.516139,17.4502488 143.749563,-1.5290728 129,32" id="Path-2"></path>
                </g>
                <g id="arrow" transform="translate(292.500000, 47.000000) rotate(-180.000000) translate(-292.500000, -47.000000) translate(252.000000, 31.000000)" stroke="#979797">
                    <path d="M0,0 C4.04208433,11.0026712 8.31516938,16.4098535 14.004769,16.6777819 C30.4085106,17.4502488 36.0431796,-1.5290728 41,32" id="Path-2"></path>
                    <path d="M81,0 C77.0565031,11.0026712 72.8876396,16.4098535 67.3368107,16.6777819 C51.3331604,17.4502488 45.8359224,-1.5290728 41,32" id="Path-2"></path>
                </g>
                <text id="12-bit" font-family="Avenir-Book, Avenir" font-size="18" font-weight="normal" fill="#32323B">
                    <tspan x="270" y="24">12 bit</tspan>
                </text>
                <text id="20-bit" font-family="Avenir-Book, Avenir" font-size="18" font-weight="normal" fill="#32323B">
                    <tspan x="104" y="18">20 bit</tspan>
                </text>
            </g>
            <g id="Group-5" transform="translate(231.000000, 190.000000)">
                <path d="M61.5,0.5 L107.5,62.5" id="Line-6" stroke="#979797" stroke-linecap="square"></path>
                <path id="Line-6-decoration-1" d="M107.5,62.5 L103.474147,52.0390005 L98.6555591,55.6140821 L107.5,62.5 Z" stroke="#979797" stroke-linecap="square"></path>
                <path d="M150.408227,58.1444809 L195.591773,1.85551906" id="Line-7" stroke="#979797" stroke-linecap="square"></path>
                <path id="Line-7-decoration-1" d="M195.591773,1.85551906 L186.491659,8.39982489 L191.170687,12.1557134 L195.591773,1.85551906 Z" stroke="#979797" stroke-linecap="square"></path>
                <text id="translate" font-family="Avenir-Book, Avenir" font-size="18" font-weight="normal" fill="#9013FE">
                    <tspan x="0" y="36">translate</tspan>
                </text>
                <text id="translation-result" font-family="Avenir-Book, Avenir" font-size="18" font-weight="normal" fill="#9013FE">
                    <tspan x="185" y="40">translation result</tspan>
                </text>
            </g>
            <g id="tables" transform="translate(102.000000, 257.000000)">
                <g>
                    <g id="Group-10">
                        <g id="table" transform="translate(0.000000, 36.000000)">
                            <rect id="Rectangle-3" fill="#EAE7E7" x="78" y="2" width="150" height="183"></rect>
                            <path d="M79.8277778,92.5 L227.172222,92.5" id="Line-4" stroke="#D0021B" stroke-width="2" stroke-linecap="square"></path>
                            <path d="M79.8277778,137.5 L227.172222,137.5" id="Line-4" stroke="#D0021B" stroke-width="2" stroke-linecap="square"></path>
                            <path d="M78.8277778,2.5 L226.172222,2.5" id="Line-4" stroke="#F23939" stroke-width="2" stroke-linecap="square"></path>
                            <path d="M79.8277778,48.5 L227.172222,48.5" id="Line-4" stroke="#F23939" stroke-width="2" stroke-linecap="square"></path>
                            <g id="arrow" transform="translate(67.000000, 92.500000) rotate(-270.000000) translate(-67.000000, -92.500000) translate(-25.000000, 80.000000)" stroke="#979797">
                                <path d="M0,0 C9.26721773,8.59583685 19.0640469,12.8201981 32.1084948,13.0295171 C69.7170731,13.6330069 82.6355824,-1.19458813 94,25" id="Path-2"></path>
                                <path d="M184,0 C175.127132,8.59583685 165.747189,12.8201981 153.257824,13.0295171 C117.249611,13.6330069 104.880825,-1.19458813 94,25" id="Path-2"></path>
                            </g>
                            <text id="2^10" font-family="Avenir-Book, Avenir" font-size="18" font-weight="normal" fill="#32323B">
                                <tspan x="0" y="102">2^10</tspan>
                            </text>
                            <g id="top-entry" transform="translate(78.000000, 3.000000)">
                                <rect id="Rectangle-6" fill="#F7DADA" x="0" y="0" width="100" height="45"></rect>
                                <rect id="Rectangle-6" fill="#DADFE0" x="99" y="0" width="51" height="45"></rect>
                                <text id="PTE-number" font-family="Avenir-Book, Avenir" font-size="14" font-weight="normal" fill="#2E2F34">
                                    <tspan x="11" y="28">PTE number</tspan>
                                </text>
                                <text id="flags" font-family="Avenir-Book, Avenir" font-size="14" font-weight="normal" fill="#2E2F34">
                                    <tspan x="110" y="28">flags</tspan>
                                </text>
                            </g>
                        </g>
                        <g id="size" transform="translate(80.000000, 0.000000)">
                            <g id="arrow" transform="translate(73.500000, 31.000000) rotate(-180.000000) translate(-73.500000, -31.000000) translate(0.000000, 24.000000)" stroke="#979797">
                                <path d="M0,0 C7.49264412,4.81366863 15.4134847,7.17931092 25.9600596,7.29652958 C56.3669952,7.63448385 66.8117475,-0.66896935 76,14" id="Path-2"></path>
                                <path d="M147,0 C140.000293,4.81366863 132.60056,7.17931092 122.747839,7.29652958 C94.3413597,7.63448385 84.5837622,-0.66896935 76,14" id="Path-2"></path>
                            </g>
                            <text id="32bits-=-4-bytes" font-family="Avenir-Book, Avenir" font-size="14" font-weight="normal" fill="#2E2F34">
                                <tspan x="25" y="14">32bits = 4 bytes</tspan>
                            </text>
                        </g>
                    </g>
                    <text id=".-.-." transform="translate(156.500000, 207.500000) scale(-1, 1) translate(-156.500000, -207.500000) " font-family="Avenir-Book, Avenir" font-size="24" font-weight="normal" line-spacing="12" fill="#2E2F34">
                        <tspan x="156" y="200">.</tspan>
                        <tspan x="156" y="212">.</tspan>
                        <tspan x="156" y="224">.</tspan>
                    </text>
                    <g id="size" transform="translate(291.000000, 1.000000)">
                        <g id="arrow" transform="translate(73.500000, 31.000000) rotate(-180.000000) translate(-73.500000, -31.000000) translate(0.000000, 24.000000)" stroke="#979797">
                            <path d="M0,0 C7.49264412,4.81366863 15.4134847,7.17931092 25.9600596,7.29652958 C56.3669952,7.63448385 66.8117475,-0.66896935 76,14" id="Path-2"></path>
                            <path d="M147,0 C140.000293,4.81366863 132.60056,7.17931092 122.747839,7.29652958 C94.3413597,7.63448385 84.5837622,-0.66896935 76,14" id="Path-2"></path>
                        </g>
                        <text id="32bits-=-4-bytes" font-family="Avenir-Book, Avenir" font-size="14" font-weight="normal" fill="#2E2F34">
                            <tspan x="25" y="14">32bits = 4 bytes</tspan>
                        </text>
                    </g>
                    <g id="table" transform="translate(7.000000, 38.000000)">
                        <g id="arrow" transform="translate(444.000000, 94.000000) rotate(-90.000000) translate(-444.000000, -94.000000) translate(354.000000, 81.000000)" stroke="#979797">
                            <path d="M0,0 C9.04549193,8.93967032 18.6079239,13.333006 31.3402727,13.5506978 C68.0490348,14.1783272 80.6584582,-1.24237165 91.7509728,26" id="Path-2"></path>
                            <path d="M180,0 C171.299756,8.93967032 162.102302,13.333006 149.855921,13.5506978 C114.548257,14.1783272 102.420109,-1.24237165 91.7509728,26" id="Path-2"></path>
                        </g>
                        <text id="2^10" font-family="Avenir-Book, Avenir" font-size="18" font-weight="normal" fill="#32323B">
                            <tspan x="469" y="98">2^10</tspan>
                        </text>
                        <g transform="translate(284.000000, 0.000000)">
                            <rect id="Rectangle-3" fill="#EAE7E7" x="0" y="1" width="147" height="184"></rect>
                            <path d="M2.81111111,45.5 L147.188889,45.5" id="Line-4" stroke="#979797" stroke-linecap="square"></path>
                            <path d="M2.81111111,1.5 L147.188889,1.5" id="Line-4" stroke="#979797" stroke-linecap="square"></path>
                            <path d="M2.81111111,91.5 L147.188889,91.5" id="Line-4" stroke="#979797" stroke-linecap="square"></path>
                            <path d="M2.81111111,137.5 L147.188889,137.5" id="Line-4" stroke="#979797" stroke-linecap="square"></path>
                            <text id=".-.-." transform="translate(77.500000, 169.500000) scale(-1, 1) translate(-77.500000, -169.500000) " font-family="Avenir-Book, Avenir" font-size="24" font-weight="normal" line-spacing="12" fill="#2E2F34">
                                <tspan x="77" y="162">.</tspan>
                                <tspan x="77" y="174">.</tspan>
                                <tspan x="77" y="186">.</tspan>
                            </text>
                        </g>
                        <g transform="translate(285.000000, 201.000000)" fill="#EAE7E7" id="Rectangle-3">
                            <rect x="0" y="0" width="147" height="173"></rect>
                        </g>
                        <text id=".-.-." transform="translate(359.500000, 417.500000) scale(-1, 1) translate(-359.500000, -417.500000) " font-family="Avenir-Book, Avenir" font-size="24" font-weight="normal" line-spacing="12" fill="#2E2F34">
                            <tspan x="359" y="410">.</tspan>
                            <tspan x="359" y="422">.</tspan>
                            <tspan x="359" y="434">.</tspan>
                        </text>
                        <g id="top-entry" transform="translate(284.000000, 1.000000)">
                            <g id="Rectangle-6">
                                <use fill="#E6F0F2" fill-rule="evenodd" xlink:href="#path-6"></use>
                                <rect stroke="#979797" stroke-width="1" x="0.5" y="0.5" width="97" height="44"></rect>
                            </g>
                            <g id="Rectangle-6">
                                <use fill="#DADFE0" fill-rule="evenodd" xlink:href="#path-7"></use>
                                <rect stroke="#979797" stroke-width="1" x="97.5" y="0.5" width="49" height="44"></rect>
                            </g>
                            <text id="Frame-number" font-family="Avenir-Book, Avenir" font-size="14" font-weight="normal" fill="#2E2F34">
                                <tspan x="2" y="28">Frame number</tspan>
                            </text>
                            <text id="flags" font-family="Avenir-Book, Avenir" font-size="14" font-weight="normal" fill="#2E2F34">
                                <tspan x="107" y="28">flags</tspan>
                            </text>
                        </g>
                        <g id="Group-7" transform="translate(0.000000, 171.000000)">
                            <path d="M34.6666667,11.5 L65.3333333,11.5" id="Line-8" stroke="#979797" stroke-linecap="square"></path>
                            <path id="Line-8-decoration-1" d="M65.3333333,11.5 L54.5333333,8.5 L54.5333333,14.5 L65.3333333,11.5 Z" stroke="#979797" stroke-linecap="square"></path>
                            <text id="cr3" font-family="Avenir-Book, Avenir" font-size="18" font-weight="normal" fill="#32323B">
                                <tspan x="0" y="18">cr3</tspan>
                            </text>
                        </g>
                    </g>
                    <polyline id="Line-26" stroke="#979797" stroke-linecap="square" points="228 65.5 277.488886 65.5 277.488886 221 296.269531 221"></polyline>
                    <path id="Line-26-decoration-1" d="M296.269531,221 L285.469531,218 L285.469531,224 L296.269531,221 Z" stroke="#979797" stroke-linecap="square"></path>
                    <polyline id="Line-26" stroke="#979797" stroke-linecap="square" points="228 105.5 256.996177 105.5 256.996177 412 268 412 292.660156 412"></polyline>
                    <path id="Line-26-decoration-1" d="M292.660156,412 L281.860156,409 L281.860156,415 L292.660156,412 Z" stroke="#979797" stroke-linecap="square"></path>
                </g>
            </g>
            <text id="&lt;2-level&gt;" font-family="Avenir-Book, Avenir" font-size="18" font-weight="normal" fill="#9013FE">
                <tspan x="63" y="18">&lt;2-level&gt;</tspan>
            </text>
        </g>
    </g>
</svg>