<?xml version="1.0" encoding="UTF-8"?>
<svg width="767px" height="308px" viewBox="0 0 767 308" version="1.1" xmlns="http://www.w3.org/2000/svg" xmlns:xlink="http://www.w3.org/1999/xlink">
    <!-- Generator: Sketch 48.2 (47327) - http://www.bohemiancoding.com/sketch -->
    <title>2to3</title>
    <desc>Created with Sketch.</desc>
    <defs></defs>
    <g id="Page-2" stroke="none" stroke-width="1" fill="none" fill-rule="evenodd">
        <g id="2to3" transform="translate(-1.000000, -4.000000)">
            <g id="2level">
                <g id="table" transform="translate(0.000000, 37.000000)">
                    <rect id="Rectangle-3" fill="#EAE7E7" x="78" y="2" width="150" height="273"></rect>
                    <path d="M79.8277778,183.5 L227.172222,183.5" id="Line-4" stroke="#D0021B" stroke-width="2" stroke-linecap="square"></path>
                    <path d="M79.8277778,228.5 L227.172222,228.5" id="Line-4" stroke="#D0021B" stroke-width="2" stroke-linecap="square"></path>
                    <path d="M79.8277778,92.5 L227.172222,92.5" id="Line-4" stroke="#D0021B" stroke-width="2" stroke-linecap="square"></path>
                    <path d="M79.8277778,137.5 L227.172222,137.5" id="Line-4" stroke="#D0021B" stroke-width="2" stroke-linecap="square"></path>
                    <path d="M78.8277778,2.5 L226.172222,2.5" id="Line-4" stroke="#F23939" stroke-width="2" stroke-linecap="square"></path>
                    <path d="M79.8277778,48.5 L227.172222,48.5" id="Line-4" stroke="#F23939" stroke-width="2" stroke-linecap="square"></path>
                    <g id="arrow" transform="translate(67.000000, 136.500000) rotate(-270.000000) translate(-67.000000, -136.500000) translate(-69.000000, 124.000000)" stroke="#979797">
                        <path d="M0,0 C13.7036518,8.59583685 28.1904523,12.8201981 47.4795827,13.0295171 C103.092268,13.6330069 122.19517,-1.19458813 139,25" id="Path-2"></path>
                        <path d="M272,0 C258.887873,8.59583685 245.026402,12.8201981 226.569896,13.0295171 C173.357758,13.6330069 155.079442,-1.19458813 139,25" id="Path-2"></path>
                    </g>
                    <text id="2^10" font-family="Avenir-Heavy, Avenir" font-size="18" font-weight="600" fill="#32323B">
                        <tspan x="0" y="149">2^10</tspan>
                    </text>
                    <text id=".-.-." transform="translate(149.000000, 254.000000) scale(-1, 1) translate(-149.000000, -254.000000) " font-family="Avenir-Book, Avenir" font-size="24" font-weight="normal" line-spacing="12" fill="#2E2F34">
                        <tspan x="138" y="253">.</tspan>
                        <tspan x="138" y="265">.</tspan>
                        <tspan x="138" y="277">.</tspan>
                    </text>
                    <g id="top-entry" transform="translate(78.000000, 3.000000)">
                        <rect id="Rectangle-6" fill="#F7DADA" x="0" y="0" width="100" height="45"></rect>
                        <rect id="Rectangle-6" fill="#DADFE0" x="99" y="0" width="51" height="45"></rect>
                        <text id="PTE-number" font-family="Avenir-Heavy, Avenir" font-size="14" font-weight="600" fill="#2E2F34">
                            <tspan x="11" y="28">PTE number</tspan>
                        </text>
                        <text id="flags" font-family="Avenir-Heavy, Avenir" font-size="14" font-weight="600" fill="#2E2F34">
                            <tspan x="110" y="28">flags</tspan>
                        </text>
                    </g>
                </g>
                <g id="size" transform="translate(80.000000, 0.000000)">
                    <g id="arrow" transform="translate(73.500000, 32.000000) rotate(-180.000000) translate(-73.500000, -32.000000) translate(0.000000, 25.000000)" stroke="#979797">
                        <path d="M0,0 C7.49264412,4.81366863 15.4134847,7.17931092 25.9600596,7.29652958 C56.3669952,7.63448385 66.8117475,-0.66896935 76,14" id="Path-2"></path>
                        <path d="M147,0 C140.000293,4.81366863 132.60056,7.17931092 122.747839,7.29652958 C94.3413597,7.63448385 84.5837622,-0.66896935 76,14" id="Path-2"></path>
                    </g>
                    <text id="32bits-=-4-bytes" font-family="Avenir-Heavy, Avenir" font-size="18" font-weight="600" fill="#2E2F34">
                        <tspan x="5" y="18">32bits = 4 bytes</tspan>
                    </text>
                </g>
            </g>
            <g id="3level" transform="translate(397.000000, 29.000000)">
                <g id="table" transform="translate(0.000000, 56.000000)">
                    <rect id="Rectangle-3" fill="#EAE7E7" x="65" y="2" width="305" height="181"></rect>
                    <path d="M66.8277778,92.5 L370,92.5" id="Line-4" stroke="#D0021B" stroke-width="2" stroke-linecap="square"></path>
                    <path d="M66.8277778,137.5 L368,137.5" id="Line-4" stroke="#D0021B" stroke-width="2" stroke-linecap="square"></path>
                    <path d="M66.8277778,182.5 L370,182.5" id="Line-4" stroke="#D0021B" stroke-width="2" stroke-linecap="square"></path>
                    <path d="M65.8277778,2.5 L368,2.5" id="Line-4" stroke="#F23939" stroke-width="2" stroke-linecap="square"></path>
                    <path d="M66.8277778,48.5 L369,48.5" id="Line-4" stroke="#F23939" stroke-width="2" stroke-linecap="square"></path>
                    <g id="arrow" transform="translate(54.000000, 90.500000) rotate(-270.000000) translate(-54.000000, -90.500000) translate(-36.000000, 78.000000)" stroke="#979797">
                        <path d="M0,0 C9.07004289,8.59583685 18.6584289,12.8201981 31.4253353,13.0295171 C68.2337311,13.6330069 80.8773785,-1.19458813 92,25" id="Path-2"></path>
                        <path d="M180,0 C171.324307,8.59583685 162.152807,12.8201981 149.940984,13.0295171 C114.732953,13.6330069 102.639029,-1.19458813 92,25" id="Path-2"></path>
                    </g>
                    <text id="2^9" font-family="Avenir-Heavy, Avenir" font-size="18" font-weight="600" fill="#32323B">
                        <tspan x="0" y="96">2^9</tspan>
                    </text>
                    <g id="top-entry" transform="translate(65.000000, 3.000000)">
                        <rect id="Rectangle-6" fill="#F7DADA" x="0" y="0" width="254" height="45"></rect>
                        <rect id="Rectangle-6" fill="#DADFE0" x="254" y="0" width="51" height="45"></rect>
                        <text id="PTE-number" font-family="Avenir-Medium, Avenir" font-size="20" font-weight="400" fill="#2E2F34">
                            <tspan x="68" y="29">PTE number</tspan>
                        </text>
                        <text id="flags" font-family="Avenir-Medium, Avenir" font-size="14" font-weight="400" fill="#2E2F34">
                            <tspan x="265" y="28">flags</tspan>
                        </text>
                    </g>
                </g>
                <g id="size" transform="translate(67.000000, 0.000000)">
                    <g id="arrow" transform="translate(151.500000, 48.500000) rotate(-180.000000) translate(-151.500000, -48.500000) translate(0.000000, 39.000000)" stroke="#979797">
                        <path d="M0,0 C15.4782254,6.532836 31.8410145,9.74335054 53.6280179,9.902433 C116.442345,10.3610852 138.019005,-0.907886975 157,19" id="Path-2"></path>
                        <path d="M303,0 C288.606236,6.532836 273.389885,9.74335054 253.129359,9.902433 C194.716035,10.3610852 174.651117,-0.907886975 157,19" id="Path-2"></path>
                    </g>
                    <text id="64bits-=-8-bytes" font-family="Avenir-Medium, Avenir" font-size="20" font-weight="400" fill="#2E2F34">
                        <tspan x="78" y="20">64bits = 8 bytes</tspan>
                    </text>
                </g>
            </g>
            <g id="Group-9" transform="translate(330.000000, 176.500000) rotate(-90.000000) translate(-330.000000, -176.500000) translate(272.500000, 135.500000)" fill="#D8D8D8">
                <g id="arrow">
                    <rect id="Rectangle-2" x="23.3108108" y="0" width="67.3423423" height="30"></rect>
                    <polygon id="Triangle" points="57.5 82 0 29 115 29"></polygon>
                </g>
            </g>
        </g>
    </g>
</svg>